<svg xmlns="http://www.w3.org/2000/svg" width="13" height="13" fill="none" viewBox="0 0 13 13"><path fill="#3B3B3B" d="M10.528 10.288c.664-.431.344-1.428-.454-1.428h-.708a.297.297 0 0 0-.302.29v1.633c0 .386.605.384.605 0v-.362h.171l.519.556c.264.283.721-.097.45-.387l-.281-.302Zm-.86-.847h.406c.275 0 .275.399 0 .399H9.67v-.399ZM2.289 10.108c.834-.147.722-1.34-.126-1.34h-.855c-.4 0-.4.581 0 .581h.855c.116 0 .131.167.017.187-1.364.24-1.378 1.392-.872 1.392H2.56c.4 0 .4-.58 0-.58h-.853c.144-.191.322-.195.58-.24ZM1.478 2.042h.154V3.34c0 .385.605.383.605 0V1.752c0-.16-.135-.29-.302-.29h-.457c-.401 0-.4.58 0 .58ZM6.17 3.04h-.842c-.4 0-.4.581 0 .581h.842c.578 0 .916-.628.583-1.08.332-.45-.004-1.08-.583-1.08h-.842c-.4 0-.4.581 0 .581h.842c.144 0 .144.209 0 .209h-.513c-.4 0-.4.58 0 .58h.513c.144 0 .144.21 0 .21ZM6.684 9.676h-.175v-.563c0-.384-.605-.384-.605 0v.563h-.393v-.563c0-.384-.605-.384-.605 0v.854c0 .16.135.29.302.29h.696v.435c0 .383.605.384.605 0v-.435h.175c.4 0 .4-.58 0-.58ZM10.113 3.04h-.689c-.4 0-.4.581 0 .581h.689c.946 0 .946-1.37 0-1.37h-.349l.026-.209h.736c.4 0 .4-.58 0-.58H9.521a.298.298 0 0 0-.3.256l-.097.79a.295.295 0 0 0 .3.324h.689c.147 0 .146.208 0 .208ZM9.664 8.179c0 .383.605.384.605 0V4.355c0-.383-.605-.384-.605 0v1.622H7.107a1.18 1.18 0 0 0-.858-.825v-.797c0-.383-.605-.384-.605 0v.797a1.18 1.18 0 0 0-.859.825H2.228V4.355c0-.383-.605-.384-.605 0V8.18c0 .383.605.384.605 0V6.557h2.557c.11.403.44.72.859.825v.797c0 .383.605.384.605 0v-.797c.419-.105.75-.422.858-.825h2.557V8.18ZM6.541 6.267a.584.584 0 0 1-.595.571.584.584 0 0 1-.595-.571c0-.315.267-.571.595-.571.328 0 .595.256.595.571Z"/></svg>