<svg xmlns="http://www.w3.org/2000/svg" width="20" height="20" fill="none" viewBox="0 0 20 20"><path fill="#363636" d="M8.959 18.334H4.098a1.738 1.738 0 0 1-1.737-1.737V8.514a1.647 1.647 0 0 1-.493-2.132c.75-1.34 1.515-2.66 2.267-3.927a1.647 1.647 0 0 1 1.42-.788c.354.003.697.116.984.32l.02.013c.343.2 3.66 2.175 6.325 3.76l2.367 1.407.108.064c.764.45 1.527.901 2.287 1.357a1.636 1.636 0 0 1 .486 2.127c-.736 1.315-1.5 2.635-2.267 3.927a1.652 1.652 0 0 1-1.4.793 1.48 1.48 0 0 1-.333-.038c-.098.058-.631.4-1.307.833-1.202.771-2.846 1.825-3.036 1.923a1.646 1.646 0 0 1-.83.18ZM3.75 10.859v5.738c0 .192.156.348.348.348h3.186a405.153 405.153 0 0 1-3.534-6.086Zm1.132-.834c.333.573 3.93 6.777 3.96 6.819a.25.25 0 0 0 .317.068 819.07 819.07 0 0 0 3.527-2.258c-.262-.154-2.155-1.283-4.16-2.477L4.866 10l.005.01.008.014v.005l.003-.004Zm.395-6.775c-.673 1.084-2.18 3.774-2.2 3.823a.26.26 0 0 0 .103.322c.111.065 11.128 6.63 11.233 6.646a.267.267 0 0 0 .04 0 .258.258 0 0 0 .222-.124 344.97 344.97 0 0 0 2.245-3.89.263.263 0 0 0-.104-.322C16.71 9.642 5.714 3.107 5.643 3.076a.262.262 0 0 0-.32.098l-.005.01-.007.01-.01.016v.005l-.012.02-.013.015Zm1.127 4.575a1.388 1.388 0 1 1 1.39-1.391 1.39 1.39 0 0 1-1.39 1.389v.002Z"/></svg>